<svg width="21" height="22" viewBox="0 0 21 22" fill="none" xmlns="http://www.w3.org/2000/svg">
<path d="M10.5 20.75C15.8849 20.75 20.25 16.3849 20.25 11C20.25 5.61523 15.8849 1.25 10.5 1.25C5.11523 1.25 0.75 5.61523 0.75 11C0.75 16.3849 5.11523 20.75 10.5 20.75Z" stroke="white" stroke-linecap="round" stroke-linejoin="round"/>
<path d="M8.25 15.5H12.75" stroke="white" stroke-linecap="round" stroke-linejoin="round"/>
<path d="M10.5 15.5V10.25H9" stroke="white" stroke-linecap="round" stroke-linejoin="round"/>
<path d="M10.5 6.875C10.2929 6.875 10.125 6.70711 10.125 6.5C10.125 6.29289 10.2929 6.125 10.5 6.125" stroke="white" stroke-linecap="round" stroke-linejoin="round"/>
<path d="M10.5 6.875C10.7071 6.875 10.875 6.70711 10.875 6.5C10.875 6.29289 10.7071 6.125 10.5 6.125" stroke="white" stroke-linecap="round" stroke-linejoin="round"/>
</svg>
