<svg width="1372" height="1024" viewBox="0 0 1372 1024" fill="none" xmlns="http://www.w3.org/2000/svg">
<path style="mix-blend-mode:screen" d="M219.964 -73.8424C-63.3382 102.423 -150.109 474.977 26.1573 758.28C202.423 1041.58 574.977 1128.35 858.28 952.087C1141.58 775.821 1228.35 403.267 1052.09 119.965C875.821 -163.338 503.267 -250.108 219.964 -73.8424Z" fill="url(#paint0_radial_216_238)"/>
<path style="mix-blend-mode:screen" d="M393.597 205.413C264.522 285.72 224.989 455.458 305.297 584.532C385.605 713.606 555.342 753.139 684.417 672.832C813.491 592.524 853.024 422.786 772.716 293.712C692.408 164.638 522.671 125.105 393.597 205.413Z" fill="url(#paint1_radial_216_238)"/>
<path style="mix-blend-mode:color-dodge" d="M340.785 120.532C164.833 230.007 110.942 461.391 220.416 637.343C329.891 813.296 561.275 867.187 737.228 757.712C913.18 648.238 967.071 416.853 857.597 240.901C748.122 64.9485 516.738 11.0574 340.785 120.532Z" fill="url(#paint2_radial_216_238)"/>
<defs>
<radialGradient id="paint0_radial_216_238" cx="0" cy="0" r="1" gradientUnits="userSpaceOnUse" gradientTransform="translate(539.032 439.074) rotate(-144.046) scale(574.723)">
<stop stop-color="#0864A9"/>
<stop offset="0.13" stop-color="#0760A3" stop-opacity="0.97"/>
<stop offset="0.29" stop-color="#075895" stop-opacity="0.88"/>
<stop offset="0.46" stop-color="#05497C" stop-opacity="0.74"/>
<stop offset="0.64" stop-color="#04355A" stop-opacity="0.53"/>
<stop offset="0.83" stop-color="#021B2E" stop-opacity="0.28"/>
<stop offset="1" stop-opacity="0"/>
</radialGradient>
<radialGradient id="paint1_radial_216_238" cx="0" cy="0" r="1" gradientUnits="userSpaceOnUse" gradientTransform="translate(538.917 439.074) rotate(-166.889) scale(275.253)">
<stop stop-color="white"/>
<stop offset="0.1" stop-color="#F9F9F9" stop-opacity="0.98"/>
<stop offset="0.23" stop-color="#EAEAEA" stop-opacity="0.92"/>
<stop offset="0.36" stop-color="#D2D2D2" stop-opacity="0.83"/>
<stop offset="0.5" stop-color="#B0B0B0" stop-opacity="0.69"/>
<stop offset="0.65" stop-color="#838383" stop-opacity="0.52"/>
<stop offset="0.81" stop-color="#4D4D4D" stop-opacity="0.3"/>
<stop offset="0.96" stop-color="#0F0F0F" stop-opacity="0.06"/>
<stop offset="1" stop-opacity="0"/>
</radialGradient>
<radialGradient id="paint2_radial_216_238" cx="0" cy="0" r="1" gradientUnits="userSpaceOnUse" gradientTransform="translate(538.916 439.074) rotate(-166.889) scale(375.222)">
<stop stop-color="#1C87BB"/>
<stop offset="0.16" stop-color="#3D83A4" stop-opacity="0.85"/>
<stop offset="0.51" stop-color="#947A6B" stop-opacity="0.45"/>
<stop offset="0.88" stop-color="#F8712A" stop-opacity="0"/>
</radialGradient>
</defs>
</svg>
